# Blender v2.79 (sub 0) OBJ File: ''
# www.blender.org
mtllib cubes.mtl
o Plane
v 1.701596 -1.469695 1.000000
v 3.701596 -1.469695 1.000000
v 1.701596 -1.469695 -1.000000
v 3.701596 -1.469695 -1.000000
vn 0.0000 1.0000 0.0000
usemtl None
s off
f 1//1 2//1 4//1 3//1
o Cube.002
v 2.436651 1.447366 -0.990078
v 2.436651 1.447366 1.009922
v 0.436651 1.447366 1.009922
v 0.436652 1.447366 -0.990078
v 2.436652 3.447366 -0.990077
v 2.436651 3.447366 1.009923
v 0.436651 3.447366 1.009922
v 0.436651 3.447366 -0.990078
vn 0.0000 -1.0000 0.0000
vn 0.0000 1.0000 0.0000
vn 1.0000 0.0000 0.0000
vn -0.0000 -0.0000 1.0000
vn -1.0000 -0.0000 -0.0000
vn 0.0000 0.0000 -1.0000
usemtl Material
s off
f 5//2 6//2 7//2 8//2
f 9//3 12//3 11//3 10//3
f 5//4 9//4 10//4 6//4
f 6//5 10//5 11//5 7//5
f 7//6 11//6 12//6 8//6
f 9//7 5//7 8//7 12//7
o Cube.001
v -0.191578 1.447366 -0.990078
v -0.191578 1.447366 1.009922
v -2.191578 1.447366 1.009922
v -2.191578 1.447366 -0.990078
v -0.191578 3.447366 -0.990077
v -0.191579 3.447366 1.009923
v -2.191579 3.447366 1.009922
v -2.191578 3.447366 -0.990078
vn 0.0000 -1.0000 -0.0000
vn 0.0000 1.0000 0.0000
vn 1.0000 0.0000 0.0000
vn -0.0000 -0.0000 1.0000
vn -1.0000 -0.0000 -0.0000
vn 0.0000 0.0000 -1.0000
usemtl Material
s off
f 13//8 14//8 15//8 16//8
f 17//9 20//9 19//9 18//9
f 13//10 17//10 18//10 14//10
f 14//11 18//11 19//11 15//11
f 15//12 19//12 20//12 16//12
f 17//13 13//13 16//13 20//13
o Cube
v 1.000000 -1.000000 -1.000000
v 1.000000 -1.000000 1.000000
v -1.000000 -1.000000 1.000000
v -1.000000 -1.000000 -1.000000
v 1.000000 1.000000 -0.999999
v 0.999999 1.000000 1.000001
v -1.000000 1.000000 1.000000
v -1.000000 1.000000 -1.000000
vn 0.0000 -1.0000 0.0000
vn 0.0000 1.0000 0.0000
vn 1.0000 0.0000 0.0000
vn -0.0000 -0.0000 1.0000
vn -1.0000 -0.0000 -0.0000
vn 0.0000 0.0000 -1.0000
usemtl Material
s off
f 21//14 22//14 23//14 24//14
f 25//15 28//15 27//15 26//15
f 21//16 25//16 26//16 22//16
f 22//17 26//17 27//17 23//17
f 23//18 27//18 28//18 24//18
f 25//19 21//19 24//19 28//19
